%TF.GenerationSoftware,KiCad,Pcbnew,8.0.5*%
%TF.CreationDate,2024-10-14T17:07:37+02:00*%
%TF.ProjectId,oni-kb,6f6e692d-6b62-42e6-9b69-6361645f7063,rev?*%
%TF.SameCoordinates,Original*%
%TF.FileFunction,Soldermask,Top*%
%TF.FilePolarity,Negative*%
%FSLAX46Y46*%
G04 Gerber Fmt 4.6, Leading zero omitted, Abs format (unit mm)*
G04 Created by KiCad (PCBNEW 8.0.5) date 2024-10-14 17:07:37*
%MOMM*%
%LPD*%
G01*
G04 APERTURE LIST*
G04 Aperture macros list*
%AMRoundRect*
0 Rectangle with rounded corners*
0 $1 Rounding radius*
0 $2 $3 $4 $5 $6 $7 $8 $9 X,Y pos of 4 corners*
0 Add a 4 corners polygon primitive as box body*
4,1,4,$2,$3,$4,$5,$6,$7,$8,$9,$2,$3,0*
0 Add four circle primitives for the rounded corners*
1,1,$1+$1,$2,$3*
1,1,$1+$1,$4,$5*
1,1,$1+$1,$6,$7*
1,1,$1+$1,$8,$9*
0 Add four rect primitives between the rounded corners*
20,1,$1+$1,$2,$3,$4,$5,0*
20,1,$1+$1,$4,$5,$6,$7,0*
20,1,$1+$1,$6,$7,$8,$9,0*
20,1,$1+$1,$8,$9,$2,$3,0*%
%AMRotRect*
0 Rectangle, with rotation*
0 The origin of the aperture is its center*
0 $1 length*
0 $2 width*
0 $3 Rotation angle, in degrees counterclockwise*
0 Add horizontal line*
21,1,$1,$2,0,0,$3*%
%AMFreePoly0*
4,1,6,1.000000,0.000000,0.500000,-0.750000,-0.500000,-0.750000,-0.500000,0.750000,0.500000,0.750000,1.000000,0.000000,1.000000,0.000000,$1*%
%AMFreePoly1*
4,1,6,0.500000,-0.750000,-0.650000,-0.750000,-0.150000,0.000000,-0.650000,0.750000,0.500000,0.750000,0.500000,-0.750000,0.500000,-0.750000,$1*%
G04 Aperture macros list end*
%ADD10C,1.701800*%
%ADD11C,3.000000*%
%ADD12C,3.429000*%
%ADD13C,2.232000*%
%ADD14R,2.600000X2.600000*%
%ADD15C,1.752600*%
%ADD16RotRect,2.600000X2.600000X155.000000*%
%ADD17C,1.200000*%
%ADD18C,1.750000*%
%ADD19FreePoly0,90.000000*%
%ADD20FreePoly1,90.000000*%
%ADD21RoundRect,0.250000X-0.625000X0.350000X-0.625000X-0.350000X0.625000X-0.350000X0.625000X0.350000X0*%
%ADD22O,1.750000X1.200000*%
%ADD23RotRect,2.600000X2.600000X175.000000*%
%ADD24C,4.400000*%
%ADD25RotRect,2.600000X2.600000X165.000000*%
%ADD26O,3.500000X2.200000*%
%ADD27R,2.500000X1.500000*%
%ADD28O,2.500000X1.500000*%
G04 APERTURE END LIST*
D10*
%TO.C,SW4*%
X133512593Y-64223504D03*
D11*
X133012593Y-67973504D03*
X128012593Y-70173504D03*
D12*
X128012593Y-64223504D03*
D11*
X123012593Y-67973504D03*
D10*
X122512593Y-64223504D03*
D13*
X128012593Y-58323504D03*
D14*
X124737593Y-70173504D03*
X136287593Y-67973504D03*
D13*
X133012593Y-60423504D03*
X123012593Y-60423504D03*
%TD*%
D15*
%TO.C,Display1*%
X177458795Y-107820794D03*
X179998795Y-107820794D03*
X182538795Y-107820794D03*
X185078795Y-107820794D03*
X187618795Y-107820794D03*
%TD*%
D10*
%TO.C,SW20*%
X187697289Y-134947902D03*
D11*
X185659316Y-138135248D03*
X180198017Y-138016033D03*
D12*
X182712596Y-132623502D03*
D11*
X176596239Y-133909065D03*
D10*
X177727903Y-130299102D03*
D13*
X185206044Y-127276286D03*
D16*
X177229859Y-136631959D03*
X188627474Y-139519322D03*
D13*
X188850084Y-131292624D03*
X179787006Y-127066441D03*
%TD*%
D10*
%TO.C,SW2*%
X97512594Y-83223504D03*
D11*
X97012594Y-86973504D03*
X92012594Y-89173504D03*
D12*
X92012594Y-83223504D03*
D11*
X87012594Y-86973504D03*
D10*
X86512594Y-83223504D03*
D13*
X92012594Y-77323504D03*
D14*
X88737594Y-89173504D03*
X100287594Y-86973504D03*
D13*
X97012594Y-79423504D03*
X87012594Y-79423504D03*
%TD*%
D17*
%TO.C,RSW1*%
X144837594Y-56576006D03*
D18*
X142337594Y-57786006D03*
X147337594Y-57786006D03*
%TD*%
D15*
%TO.C,U1*%
X175142593Y-71890254D03*
X175142593Y-74430254D03*
X175142593Y-76970254D03*
X175142593Y-79510254D03*
X175142593Y-82050254D03*
X175142593Y-84590254D03*
X175142593Y-87130254D03*
X175142593Y-89670254D03*
X175142593Y-92210254D03*
X175142593Y-94750254D03*
X175142593Y-97290254D03*
X175142593Y-99830254D03*
X190382593Y-99830254D03*
X190382593Y-97290254D03*
X190382593Y-94750254D03*
X190382593Y-92210254D03*
X190382593Y-89670254D03*
X190382593Y-87130254D03*
X190382593Y-84590254D03*
X190382593Y-82050254D03*
X190382593Y-79510254D03*
X190382593Y-76970254D03*
X190382593Y-74430254D03*
X190382593Y-71890254D03*
X177682593Y-94750254D03*
X180222593Y-94750254D03*
X182762593Y-94750254D03*
%TD*%
D19*
%TO.C,JP7*%
X185095729Y-105428502D03*
D20*
X185095729Y-103978502D03*
%TD*%
D10*
%TO.C,SW12*%
X169492594Y-89213504D03*
D11*
X168992594Y-92963504D03*
X163992594Y-95163504D03*
D12*
X163992594Y-89213504D03*
D11*
X158992594Y-92963504D03*
D10*
X158492594Y-89213504D03*
D13*
X163992594Y-83313504D03*
D14*
X160717594Y-95163504D03*
X172267594Y-92963504D03*
D13*
X168992594Y-85413504D03*
X158992594Y-85413504D03*
%TD*%
D19*
%TO.C,JP6*%
X180005729Y-105433502D03*
D20*
X180005729Y-103983502D03*
%TD*%
D10*
%TO.C,SW6*%
X169512592Y-72223504D03*
D11*
X169012592Y-75973504D03*
X164012592Y-78173504D03*
D12*
X164012592Y-72223504D03*
D11*
X159012592Y-75973504D03*
D10*
X158512592Y-72223504D03*
D13*
X164012592Y-66323504D03*
D14*
X160737592Y-78173504D03*
X172287592Y-75973504D03*
D13*
X169012592Y-68423504D03*
X159012592Y-68423504D03*
%TD*%
D19*
%TO.C,JP8*%
X187615729Y-105433502D03*
D20*
X187615729Y-103983502D03*
%TD*%
D21*
%TO.C,J1*%
X184118795Y-115230793D03*
D22*
X184118795Y-117230793D03*
X184118795Y-119230793D03*
%TD*%
D10*
%TO.C,SW11*%
X151512596Y-86673507D03*
D11*
X151012596Y-90423507D03*
X146012596Y-92623507D03*
D12*
X146012596Y-86673507D03*
D11*
X141012596Y-90423507D03*
D10*
X140512596Y-86673507D03*
D13*
X146012596Y-80773507D03*
D14*
X142737596Y-92623507D03*
X154287596Y-90423507D03*
D13*
X151012596Y-82873507D03*
X141012596Y-82873507D03*
%TD*%
D10*
%TO.C,SW14*%
X97512594Y-117223501D03*
D11*
X97012594Y-120973501D03*
X92012594Y-123173501D03*
D12*
X92012594Y-117223501D03*
D11*
X87012594Y-120973501D03*
D10*
X86512594Y-117223501D03*
D13*
X92012594Y-111323501D03*
D14*
X88737594Y-123173501D03*
X100287594Y-120973501D03*
D13*
X97012594Y-113423501D03*
X87012594Y-113423501D03*
%TD*%
D10*
%TO.C,SW15*%
X115512593Y-105215503D03*
D11*
X115012593Y-108965503D03*
X110012593Y-111165503D03*
D12*
X110012593Y-105215503D03*
D11*
X105012593Y-108965503D03*
D10*
X104512593Y-105215503D03*
D13*
X110012593Y-99315503D03*
D14*
X106737593Y-111165503D03*
X118287593Y-108965503D03*
D13*
X115012593Y-101415503D03*
X105012593Y-101415503D03*
%TD*%
D10*
%TO.C,SW17*%
X151512594Y-103691507D03*
D11*
X151012594Y-107441507D03*
X146012594Y-109641507D03*
D12*
X146012594Y-103691507D03*
D11*
X141012594Y-107441507D03*
D10*
X140512594Y-103691507D03*
D13*
X146012594Y-97791507D03*
D14*
X142737594Y-109641507D03*
X154287594Y-107441507D03*
D13*
X151012594Y-99891507D03*
X141012594Y-99891507D03*
%TD*%
D10*
%TO.C,SW1*%
X150541664Y-123002859D03*
D11*
X149716732Y-126695011D03*
X144544016Y-128450860D03*
D12*
X145062593Y-122523502D03*
D11*
X139754782Y-125823453D03*
D10*
X139583522Y-122044145D03*
D13*
X145576812Y-116645953D03*
D23*
X141281479Y-128165425D03*
X152979270Y-126980446D03*
D13*
X150374758Y-119173741D03*
X140412811Y-118302183D03*
%TD*%
D24*
%TO.C,REF\u002A\u002A*%
X118462595Y-80123505D03*
X137512595Y-61073505D03*
X137512595Y-99173505D03*
X156562595Y-80123505D03*
%TD*%
D10*
%TO.C,SW8*%
X97512594Y-100223504D03*
D11*
X97012594Y-103973504D03*
X92012594Y-106173504D03*
D12*
X92012594Y-100223504D03*
D11*
X87012594Y-103973504D03*
D10*
X86512594Y-100223504D03*
D13*
X92012594Y-94323504D03*
D14*
X88737594Y-106173504D03*
X100287594Y-103973504D03*
D13*
X97012594Y-96423504D03*
X87012594Y-96423504D03*
%TD*%
D10*
%TO.C,SW3*%
X115512596Y-71223504D03*
D11*
X115012596Y-74973504D03*
X110012596Y-77173504D03*
D12*
X110012596Y-71223504D03*
D11*
X105012596Y-74973504D03*
D10*
X104512596Y-71223504D03*
D13*
X110012596Y-65323504D03*
D14*
X106737596Y-77173504D03*
X118287596Y-74973504D03*
D13*
X115012596Y-67423504D03*
X105012596Y-67423504D03*
%TD*%
D10*
%TO.C,SW16*%
X133512592Y-98357505D03*
D11*
X133012592Y-102107505D03*
X128012592Y-104307505D03*
D12*
X128012592Y-98357505D03*
D11*
X123012592Y-102107505D03*
D10*
X122512592Y-98357505D03*
D13*
X128012592Y-92457505D03*
D14*
X124737592Y-104307505D03*
X136287592Y-102107505D03*
D13*
X133012592Y-94557505D03*
X123012592Y-94557505D03*
%TD*%
D10*
%TO.C,SW18*%
X169486248Y-106231504D03*
D11*
X168986248Y-109981504D03*
X163986248Y-112181504D03*
D12*
X163986248Y-106231504D03*
D11*
X158986248Y-109981504D03*
D10*
X158486248Y-106231504D03*
D13*
X163986248Y-100331504D03*
D14*
X160711248Y-112181504D03*
X172261248Y-109981504D03*
D13*
X168986248Y-102431504D03*
X158986248Y-102431504D03*
%TD*%
D10*
%TO.C,SW5*%
X151512594Y-69723505D03*
D11*
X151012594Y-73473505D03*
X146012594Y-75673505D03*
D12*
X146012594Y-69723505D03*
D11*
X141012594Y-73473505D03*
D10*
X140512594Y-69723505D03*
D13*
X146012594Y-63823505D03*
D14*
X142737594Y-75673505D03*
X154287594Y-73473505D03*
D13*
X151012594Y-65923505D03*
X141012594Y-65923505D03*
%TD*%
D10*
%TO.C,SW21*%
X169625184Y-127347010D03*
D11*
X168171650Y-130839822D03*
X162772619Y-131670764D03*
D12*
X164312592Y-125923505D03*
D11*
X158512391Y-128251632D03*
D10*
X159000000Y-124500000D03*
D13*
X165839624Y-120224543D03*
D25*
X159609212Y-130823131D03*
X171335057Y-131687454D03*
D13*
X170125734Y-123547082D03*
X160466475Y-120958892D03*
%TD*%
D19*
%TO.C,JP5*%
X177455729Y-105433502D03*
D20*
X177455729Y-103983502D03*
%TD*%
D10*
%TO.C,SW10*%
X133512595Y-81339504D03*
D11*
X133012595Y-85089504D03*
X128012595Y-87289504D03*
D12*
X128012595Y-81339504D03*
D11*
X123012595Y-85089504D03*
D10*
X122512595Y-81339504D03*
D13*
X128012595Y-75439504D03*
D14*
X124737595Y-87289504D03*
X136287595Y-85089504D03*
D13*
X133012595Y-77539504D03*
X123012595Y-77539504D03*
%TD*%
D10*
%TO.C,SW9*%
X115512596Y-88197504D03*
D11*
X115012596Y-91947504D03*
X110012596Y-94147504D03*
D12*
X110012596Y-88197504D03*
D11*
X105012596Y-91947504D03*
D10*
X104512596Y-88197504D03*
D13*
X110012596Y-82297504D03*
D14*
X106737596Y-94147504D03*
X118287596Y-91947504D03*
D13*
X115012596Y-84397504D03*
X105012596Y-84397504D03*
%TD*%
D26*
%TO.C,SW7*%
X189975729Y-113388502D03*
X189975729Y-121588502D03*
D27*
X189975729Y-115488502D03*
D28*
X189975729Y-117488502D03*
X189975729Y-119488502D03*
%TD*%
M02*
