0
SECTION
2
HEADER
9
$INSUNITS
70
4
0
ENDSEC
0
SECTION
2
TABLES
0
TABLE
2
LTYPE
0
LTYPE
72
65
70
64
2
CONTINUOUS
3
______
73
0
40
0
0
ENDTAB
0
TABLE
2
LAYER
0
ENDTAB
0
ENDSEC
0
SECTION
2
ENTITIES
0
LINE
8
0
10
121
20
-141
11
139
21
-141
0
LINE
8
0
10
139
20
-141
11
139
21
-159
0
LINE
8
0
10
139
20
-159
11
121
21
-159
0
LINE
8
0
10
121
20
-159
11
121
21
-141
0
LINE
8
0
10
121
20
-122
11
139
21
-122
0
LINE
8
0
10
139
20
-122
11
139
21
-140
0
LINE
8
0
10
139
20
-140
11
121
21
-140
0
LINE
8
0
10
121
20
-140
11
121
21
-122
0
LINE
8
0
10
121
20
-103
11
139
21
-103
0
LINE
8
0
10
139
20
-103
11
139
21
-121
0
LINE
8
0
10
139
20
-121
11
121
21
-121
0
LINE
8
0
10
121
20
-121
11
121
21
-103
0
LINE
8
0
10
140
20
-127
11
158
21
-127
0
LINE
8
0
10
158
20
-127
11
158
21
-145
0
LINE
8
0
10
158
20
-145
11
140
21
-145
0
LINE
8
0
10
140
20
-145
11
140
21
-127
0
LINE
8
0
10
140
20
-108
11
158
21
-108
0
LINE
8
0
10
158
20
-108
11
158
21
-126
0
LINE
8
0
10
158
20
-126
11
140
21
-126
0
LINE
8
0
10
140
20
-126
11
140
21
-108
0
LINE
8
0
10
140
20
-89
11
158
21
-89
0
LINE
8
0
10
158
20
-89
11
158
21
-107
0
LINE
8
0
10
158
20
-107
11
140
21
-107
0
LINE
8
0
10
140
20
-107
11
140
21
-89
0
LINE
8
0
10
159
20
-121
11
177
21
-121
0
LINE
8
0
10
177
20
-121
11
177
21
-139
0
LINE
8
0
10
177
20
-139
11
159
21
-139
0
LINE
8
0
10
159
20
-139
11
159
21
-121
0
LINE
8
0
10
159
20
-102
11
177
21
-102
0
LINE
8
0
10
177
20
-102
11
177
21
-120
0
LINE
8
0
10
177
20
-120
11
159
21
-120
0
LINE
8
0
10
159
20
-120
11
159
21
-102
0
LINE
8
0
10
159
20
-83
11
177
21
-83
0
LINE
8
0
10
177
20
-83
11
177
21
-101
0
LINE
8
0
10
177
20
-101
11
159
21
-101
0
LINE
8
0
10
159
20
-101
11
159
21
-83
0
LINE
8
0
10
178
20
-127
11
196
21
-127
0
LINE
8
0
10
196
20
-127
11
196
21
-145
0
LINE
8
0
10
196
20
-145
11
178
21
-145
0
LINE
8
0
10
178
20
-145
11
178
21
-127
0
LINE
8
0
10
178
20
-108
11
196
21
-108
0
LINE
8
0
10
196
20
-108
11
196
21
-126
0
LINE
8
0
10
196
20
-126
11
178
21
-126
0
LINE
8
0
10
178
20
-126
11
178
21
-108
0
LINE
8
0
10
178
20
-89
11
196
21
-89
0
LINE
8
0
10
196
20
-89
11
196
21
-107
0
LINE
8
0
10
196
20
-107
11
178
21
-107
0
LINE
8
0
10
178
20
-107
11
178
21
-89
0
LINE
8
0
10
197
20
-132
11
215
21
-132
0
LINE
8
0
10
215
20
-132
11
215
21
-150
0
LINE
8
0
10
215
20
-150
11
197
21
-150
0
LINE
8
0
10
197
20
-150
11
197
21
-132
0
LINE
8
0
10
197
20
-113
11
215
21
-113
0
LINE
8
0
10
215
20
-113
11
215
21
-131
0
LINE
8
0
10
215
20
-131
11
197
21
-131
0
LINE
8
0
10
197
20
-131
11
197
21
-113
0
LINE
8
0
10
197
20
-94
11
215
21
-94
0
LINE
8
0
10
215
20
-94
11
215
21
-112
0
LINE
8
0
10
215
20
-112
11
197
21
-112
0
LINE
8
0
10
197
20
-112
11
197
21
-94
0
LINE
8
0
10
169.8293809
20
-143.8679085
11
187.1320915
21
-148.8293809
0
LINE
8
0
10
187.1320915
20
-148.8293809
11
182.1706191
21
-166.1320915
0
LINE
8
0
10
182.1706191
20
-166.1320915
11
164.8679085
21
-161.1706191
0
LINE
8
0
10
164.8679085
20
-161.1706191
11
169.8293809
21
-143.8679085
0
LINE
8
0
10
190.5365234
20
-150.1427262
11
206.9803416
21
-157.4639858
0
LINE
8
0
10
206.9803416
20
-157.4639858
11
199.659082
21
-173.907804
0
LINE
8
0
10
199.659082
20
-173.907804
11
183.2152638
21
-166.5865444
0
LINE
8
0
10
183.2152638
20
-166.5865444
11
190.5365234
21
-150.1427262
0
LINE
8
0
10
210.1688595
20
-159.2383548
11
225.4337252
21
-168.7769015
0
LINE
8
0
10
225.4337252
20
-168.7769015
11
215.8951785
21
-184.0417672
0
LINE
8
0
10
215.8951785
20
-184.0417672
11
200.6303128
21
-174.5032205
0
LINE
8
0
10
200.6303128
20
-174.5032205
11
210.1688595
21
-159.2383548
0
ENDSEC
0
EOF