<svg width="110.362mm" height="98.502mm" viewBox="0 0 110.362 98.502" xmlns="http://www.w3.org/2000/svg"><g id="svgGroup" stroke-linecap="round" fill-rule="evenodd" font-size="9pt" stroke="#000" stroke-width="0.25mm" fill="none" style="stroke:#000;stroke-width:0.25mm;fill:none"><path d="M 72.342 66.643 L 89.645 71.604 L 84.683 88.907 L 67.381 83.945 L 72.342 66.643 Z M 0 52 L 18 52 L 18 70 L 0 70 L 0 52 Z M 0 33 L 18 33 L 18 51 L 0 51 L 0 33 Z M 0 14 L 18 14 L 18 32 L 0 32 L 0 14 Z M 19 44 L 37 44 L 37 62 L 19 62 L 19 44 Z M 19 25 L 37 25 L 37 43 L 19 43 L 19 25 Z M 19 6 L 37 6 L 37 24 L 19 24 L 19 6 Z M 38 38 L 56 38 L 56 56 L 38 56 L 38 38 Z M 38 19 L 56 19 L 56 37 L 38 37 L 38 19 Z M 38 0 L 56 0 L 56 18 L 38 18 L 38 0 Z M 57 44 L 75 44 L 75 62 L 57 62 L 57 44 Z M 57 25 L 75 25 L 75 43 L 57 43 L 57 25 Z M 57 6 L 75 6 L 75 24 L 57 24 L 57 6 Z M 76 49 L 94 49 L 94 67 L 76 67 L 76 49 Z M 76 30 L 94 30 L 94 48 L 76 48 L 76 30 Z M 76 11 L 94 11 L 94 29 L 76 29 L 76 11 Z M 94.774 73.914 L 110.362 82.914 L 101.362 98.502 L 85.774 89.502 L 94.774 73.914 Z" vector-effect="non-scaling-stroke"/></g></svg>