<svg width="104.434mm" height="101.042mm" viewBox="0 0 104.434 101.042" xmlns="http://www.w3.org/2000/svg"><g id="svgGroup" stroke-linecap="round" fill-rule="evenodd" font-size="9pt" stroke="#000" stroke-width="0.25mm" fill="none" style="stroke:#000;stroke-width:0.25mm;fill:none"><path d="M 48.829 60.868 L 66.132 65.829 L 61.171 83.132 L 43.868 78.171 L 48.829 60.868 Z M 0 58 L 18 58 L 18 76 L 0 76 L 0 58 Z M 0 39 L 18 39 L 18 57 L 0 57 L 0 39 Z M 0 20 L 18 20 L 18 38 L 0 38 L 0 20 Z M 19 44 L 37 44 L 37 62 L 19 62 L 19 44 Z M 19 25 L 37 25 L 37 43 L 19 43 L 19 25 Z M 19 6 L 37 6 L 37 24 L 19 24 L 19 6 Z M 38 38 L 56 38 L 56 56 L 38 56 L 38 38 Z M 38 19 L 56 19 L 56 37 L 38 37 L 38 19 Z M 38 0 L 56 0 L 56 18 L 38 18 L 38 0 Z M 57 44 L 75 44 L 75 62 L 57 62 L 57 44 Z M 57 25 L 75 25 L 75 43 L 57 43 L 57 25 Z M 57 6 L 75 6 L 75 24 L 57 24 L 57 6 Z M 76 49 L 94 49 L 94 67 L 76 67 L 76 49 Z M 76 30 L 94 30 L 94 48 L 76 48 L 76 30 Z M 76 11 L 94 11 L 94 29 L 76 29 L 76 11 Z M 69.537 67.143 L 85.98 74.464 L 78.659 90.908 L 62.215 83.587 L 69.537 67.143 Z M 89.169 76.238 L 104.434 85.777 L 94.895 101.042 L 79.63 91.503 L 89.169 76.238 Z" vector-effect="non-scaling-stroke"/></g></svg>