0
SECTION
2
HEADER
9
$INSUNITS
70
4
0
ENDSEC
0
SECTION
2
TABLES
0
TABLE
2
LTYPE
0
LTYPE
72
65
70
64
2
CONTINUOUS
3
______
73
0
40
0
0
ENDTAB
0
TABLE
2
LAYER
0
ENDTAB
0
ENDSEC
0
SECTION
2
ENTITIES
0
LINE
8
0
10
121
20
-141
11
139
21
-141
0
LINE
8
0
10
139
20
-141
11
139
21
-159
0
LINE
8
0
10
139
20
-159
11
121
21
-159
0
LINE
8
0
10
121
20
-159
11
121
21
-141
0
LINE
8
0
10
121
20
-122
11
139
21
-122
0
LINE
8
0
10
139
20
-122
11
139
21
-140
0
LINE
8
0
10
139
20
-140
11
121
21
-140
0
LINE
8
0
10
121
20
-140
11
121
21
-122
0
LINE
8
0
10
121
20
-103
11
139
21
-103
0
LINE
8
0
10
139
20
-103
11
139
21
-121
0
LINE
8
0
10
139
20
-121
11
121
21
-121
0
LINE
8
0
10
121
20
-121
11
121
21
-103
0
LINE
8
0
10
140
20
-133
11
158
21
-133
0
LINE
8
0
10
158
20
-133
11
158
21
-151
0
LINE
8
0
10
158
20
-151
11
140
21
-151
0
LINE
8
0
10
140
20
-151
11
140
21
-133
0
LINE
8
0
10
140
20
-114
11
158
21
-114
0
LINE
8
0
10
158
20
-114
11
158
21
-132
0
LINE
8
0
10
158
20
-132
11
140
21
-132
0
LINE
8
0
10
140
20
-132
11
140
21
-114
0
LINE
8
0
10
140
20
-95
11
158
21
-95
0
LINE
8
0
10
158
20
-95
11
158
21
-113
0
LINE
8
0
10
158
20
-113
11
140
21
-113
0
LINE
8
0
10
140
20
-113
11
140
21
-95
0
LINE
8
0
10
159
20
-127
11
177
21
-127
0
LINE
8
0
10
177
20
-127
11
177
21
-145
0
LINE
8
0
10
177
20
-145
11
159
21
-145
0
LINE
8
0
10
159
20
-145
11
159
21
-127
0
LINE
8
0
10
159
20
-108
11
177
21
-108
0
LINE
8
0
10
177
20
-108
11
177
21
-126
0
LINE
8
0
10
177
20
-126
11
159
21
-126
0
LINE
8
0
10
159
20
-126
11
159
21
-108
0
LINE
8
0
10
159
20
-89
11
177
21
-89
0
LINE
8
0
10
177
20
-89
11
177
21
-107
0
LINE
8
0
10
177
20
-107
11
159
21
-107
0
LINE
8
0
10
159
20
-107
11
159
21
-89
0
LINE
8
0
10
178
20
-133
11
196
21
-133
0
LINE
8
0
10
196
20
-133
11
196
21
-151
0
LINE
8
0
10
196
20
-151
11
178
21
-151
0
LINE
8
0
10
178
20
-151
11
178
21
-133
0
LINE
8
0
10
178
20
-114
11
196
21
-114
0
LINE
8
0
10
196
20
-114
11
196
21
-132
0
LINE
8
0
10
196
20
-132
11
178
21
-132
0
LINE
8
0
10
178
20
-132
11
178
21
-114
0
LINE
8
0
10
178
20
-95
11
196
21
-95
0
LINE
8
0
10
196
20
-95
11
196
21
-113
0
LINE
8
0
10
196
20
-113
11
178
21
-113
0
LINE
8
0
10
178
20
-113
11
178
21
-95
0
LINE
8
0
10
197
20
-138
11
215
21
-138
0
LINE
8
0
10
215
20
-138
11
215
21
-156
0
LINE
8
0
10
215
20
-156
11
197
21
-156
0
LINE
8
0
10
197
20
-156
11
197
21
-138
0
LINE
8
0
10
197
20
-119
11
215
21
-119
0
LINE
8
0
10
215
20
-119
11
215
21
-137
0
LINE
8
0
10
215
20
-137
11
197
21
-137
0
LINE
8
0
10
197
20
-137
11
197
21
-119
0
LINE
8
0
10
197
20
-100
11
215
21
-100
0
LINE
8
0
10
215
20
-100
11
215
21
-118
0
LINE
8
0
10
215
20
-118
11
197
21
-118
0
LINE
8
0
10
197
20
-118
11
197
21
-100
0
LINE
8
0
10
193.342128
20
-155.6426746
11
210.6448386
21
-160.604147
0
LINE
8
0
10
210.6448386
20
-160.604147
11
205.6833662
21
-177.9068576
0
LINE
8
0
10
205.6833662
20
-177.9068576
11
188.3806556
21
-172.9453852
0
LINE
8
0
10
188.3806556
20
-172.9453852
11
193.342128
21
-155.6426746
0
LINE
8
0
10
215.7737542
20
-162.9136366
11
231.3622114
21
-171.9136366
0
LINE
8
0
10
231.3622114
20
-171.9136366
11
222.3622114
21
-187.5020938
0
LINE
8
0
10
222.3622114
20
-187.5020938
11
206.7737542
21
-178.5020938
0
LINE
8
0
10
206.7737542
20
-178.5020938
11
215.7737542
21
-162.9136366
0
ENDSEC
0
EOF