<svg width="112.478mm" height="99.935mm" viewBox="0 0 112.478 99.935" xmlns="http://www.w3.org/2000/svg"><g id="svgGroup" stroke-linecap="round" fill-rule="evenodd" font-size="9pt" stroke="#000" stroke-width="0.25mm" fill="none" style="stroke:#000;stroke-width:0.25mm;fill:none"><path d="M 0 71 L 20 71 L 20 63 L 39 63 L 39 57 L 57 57 L 57 63 L 76 63 L 76 67.385 L 72.519 66.386 L 67.282 84.65 L 85.665 89.922 L 85.658 89.935 L 102.978 99.935 L 112.478 83.481 L 95.158 73.481 L 87.475 86.788 L 91.744 71.899 L 78.146 68 L 96 68 L 96 11 L 77 11 L 77 6 L 58 6 L 58 0 L 38 0 L 38 6 L 19 6 L 19 14 L 0 14 L 0 71 Z" vector-effect="non-scaling-stroke"/></g></svg>