<svg width="103.574mm" height="99.523mm" viewBox="0 0 103.574 99.523" xmlns="http://www.w3.org/2000/svg"><g id="svgGroup" stroke-linecap="round" fill-rule="evenodd" font-size="9pt" stroke="#000" stroke-width="0.25mm" fill="none" style="stroke:#000;stroke-width:0.25mm;fill:none"><path d="M 62.499 82.253 L 78.486 89.371 L 85.197 74.297 L 69.21 67.18 L 62.499 82.253 Z M 79.99 90.25 L 94.831 99.523 L 103.574 85.53 L 88.733 76.257 L 79.99 90.25 Z M 44.065 76.769 L 60.887 81.592 L 65.435 65.731 L 48.613 60.908 L 44.065 76.769 Z M 0 74.5 L 17.5 74.5 L 17.5 58 L 0 58 L 0 74.5 Z M 0 55.5 L 17.5 55.5 L 17.5 39 L 0 39 L 0 55.5 Z M 0 36.5 L 17.5 36.5 L 17.5 20 L 0 20 L 0 36.5 Z M 19 60.5 L 36.5 60.5 L 36.5 44 L 19 44 L 19 60.5 Z M 19 41.5 L 36.5 41.5 L 36.5 25 L 19 25 L 19 41.5 Z M 19 22.5 L 36.5 22.5 L 36.5 6 L 19 6 L 19 22.5 Z M 38 54.5 L 55.5 54.5 L 55.5 38 L 38 38 L 38 54.5 Z M 38 35.5 L 55.5 35.5 L 55.5 19 L 38 19 L 38 35.5 Z M 38 16.5 L 55.5 16.5 L 55.5 0 L 38 0 L 38 16.5 Z M 57 60.5 L 74.5 60.5 L 74.5 44 L 57 44 L 57 60.5 Z M 57 41.5 L 74.5 41.5 L 74.5 25 L 57 25 L 57 41.5 Z M 57 22.5 L 74.5 22.5 L 74.5 6 L 57 6 L 57 22.5 Z M 76 65.5 L 93.5 65.5 L 93.5 49 L 76 49 L 76 65.5 Z M 76 46.5 L 93.5 46.5 L 93.5 30 L 76 30 L 76 46.5 Z M 76 27.5 L 93.5 27.5 L 93.5 11 L 76 11 L 76 27.5 Z" vector-effect="non-scaling-stroke"/></g></svg>