0
SECTION
2
HEADER
9
$INSUNITS
70
4
0
ENDSEC
0
SECTION
2
TABLES
0
TABLE
2
LTYPE
0
LTYPE
72
65
70
64
2
CONTINUOUS
3
______
73
0
40
0
0
ENDTAB
0
TABLE
2
LAYER
0
ENDTAB
0
ENDSEC
0
SECTION
2
ENTITIES
0
LINE
8
0
10
121.25
20
-158.25
11
138.75
21
-158.25
0
LINE
8
0
10
138.75
20
-158.25
11
138.75
21
-141.75
0
LINE
8
0
10
138.75
20
-141.75
11
121.25
21
-141.75
0
LINE
8
0
10
121.25
20
-141.75
11
121.25
21
-158.25
0
LINE
8
0
10
121.25
20
-139.25
11
138.75
21
-139.25
0
LINE
8
0
10
138.75
20
-139.25
11
138.75
21
-122.75
0
LINE
8
0
10
138.75
20
-122.75
11
121.25
21
-122.75
0
LINE
8
0
10
121.25
20
-122.75
11
121.25
21
-139.25
0
LINE
8
0
10
121.25
20
-120.25
11
138.75
21
-120.25
0
LINE
8
0
10
138.75
20
-120.25
11
138.75
21
-103.75
0
LINE
8
0
10
138.75
20
-103.75
11
121.25
21
-103.75
0
LINE
8
0
10
121.25
20
-103.75
11
121.25
21
-120.25
0
LINE
8
0
10
140.25
20
-144.25
11
157.75
21
-144.25
0
LINE
8
0
10
157.75
20
-144.25
11
157.75
21
-127.75
0
LINE
8
0
10
157.75
20
-127.75
11
140.25
21
-127.75
0
LINE
8
0
10
140.25
20
-127.75
11
140.25
21
-144.25
0
LINE
8
0
10
140.25
20
-125.25
11
157.75
21
-125.25
0
LINE
8
0
10
157.75
20
-125.25
11
157.75
21
-108.75
0
LINE
8
0
10
157.75
20
-108.75
11
140.25
21
-108.75
0
LINE
8
0
10
140.25
20
-108.75
11
140.25
21
-125.25
0
LINE
8
0
10
140.25
20
-106.25
11
157.75
21
-106.25
0
LINE
8
0
10
157.75
20
-106.25
11
157.75
21
-89.75
0
LINE
8
0
10
157.75
20
-89.75
11
140.25
21
-89.75
0
LINE
8
0
10
140.25
20
-89.75
11
140.25
21
-106.25
0
LINE
8
0
10
159.25
20
-138.25
11
176.75
21
-138.25
0
LINE
8
0
10
176.75
20
-138.25
11
176.75
21
-121.75
0
LINE
8
0
10
176.75
20
-121.75
11
159.25
21
-121.75
0
LINE
8
0
10
159.25
20
-121.75
11
159.25
21
-138.25
0
LINE
8
0
10
159.25
20
-119.25
11
176.75
21
-119.25
0
LINE
8
0
10
176.75
20
-119.25
11
176.75
21
-102.75
0
LINE
8
0
10
176.75
20
-102.75
11
159.25
21
-102.75
0
LINE
8
0
10
159.25
20
-102.75
11
159.25
21
-119.25
0
LINE
8
0
10
159.25
20
-100.25
11
176.75
21
-100.25
0
LINE
8
0
10
176.75
20
-100.25
11
176.75
21
-83.75
0
LINE
8
0
10
176.75
20
-83.75
11
159.25
21
-83.75
0
LINE
8
0
10
159.25
20
-83.75
11
159.25
21
-100.25
0
LINE
8
0
10
178.25
20
-144.25
11
195.75
21
-144.25
0
LINE
8
0
10
195.75
20
-144.25
11
195.75
21
-127.75
0
LINE
8
0
10
195.75
20
-127.75
11
178.25
21
-127.75
0
LINE
8
0
10
178.25
20
-127.75
11
178.25
21
-144.25
0
LINE
8
0
10
178.25
20
-125.25
11
195.75
21
-125.25
0
LINE
8
0
10
195.75
20
-125.25
11
195.75
21
-108.75
0
LINE
8
0
10
195.75
20
-108.75
11
178.25
21
-108.75
0
LINE
8
0
10
178.25
20
-108.75
11
178.25
21
-125.25
0
LINE
8
0
10
178.25
20
-106.25
11
195.75
21
-106.25
0
LINE
8
0
10
195.75
20
-106.25
11
195.75
21
-89.75
0
LINE
8
0
10
195.75
20
-89.75
11
178.25
21
-89.75
0
LINE
8
0
10
178.25
20
-89.75
11
178.25
21
-106.25
0
LINE
8
0
10
197.25
20
-149.25
11
214.75
21
-149.25
0
LINE
8
0
10
214.75
20
-149.25
11
214.75
21
-132.75
0
LINE
8
0
10
214.75
20
-132.75
11
197.25
21
-132.75
0
LINE
8
0
10
197.25
20
-132.75
11
197.25
21
-149.25
0
LINE
8
0
10
197.25
20
-130.25
11
214.75
21
-130.25
0
LINE
8
0
10
214.75
20
-130.25
11
214.75
21
-113.75
0
LINE
8
0
10
214.75
20
-113.75
11
197.25
21
-113.75
0
LINE
8
0
10
197.25
20
-113.75
11
197.25
21
-130.25
0
LINE
8
0
10
197.25
20
-111.25
11
214.75
21
-111.25
0
LINE
8
0
10
214.75
20
-111.25
11
214.75
21
-94.75
0
LINE
8
0
10
214.75
20
-94.75
11
197.25
21
-94.75
0
LINE
8
0
10
197.25
20
-94.75
11
197.25
21
-111.25
0
LINE
8
0
10
165.314952
20
-160.5185821
11
182.1370317
21
-165.3422359
0
LINE
8
0
10
182.1370317
20
-165.3422359
11
186.685048
21
-149.4814179
0
LINE
8
0
10
186.685048
20
-149.4814179
11
169.8629683
21
-144.6577641
0
LINE
8
0
10
169.8629683
20
-144.6577641
11
165.314952
21
-160.5185821
0
LINE
8
0
10
183.7487026
20
-166.0030695
11
199.7357481
21
-173.1209608
0
LINE
8
0
10
199.7357481
20
-173.1209608
11
206.4469028
21
-158.0474607
0
LINE
8
0
10
206.4469028
20
-158.0474607
11
190.4598573
21
-150.9295694
0
LINE
8
0
10
190.4598573
20
-150.9295694
11
183.7487026
21
-166.0030695
0
LINE
8
0
10
201.2397642
20
-173.9996642
11
216.0806059
21
-183.2732514
0
LINE
8
0
10
216.0806059
20
-183.2732514
11
224.8242738
21
-169.2804578
0
LINE
8
0
10
224.8242738
20
-169.2804578
11
209.9834321
21
-160.0068706
0
LINE
8
0
10
209.9834321
20
-160.0068706
11
201.2397642
21
-173.9996642
0
ENDSEC
0
EOF