0
SECTION
2
HEADER
9
$INSUNITS
70
4
0
ENDSEC
0
SECTION
2
TABLES
0
TABLE
2
LTYPE
0
LTYPE
72
65
70
64
2
CONTINUOUS
3
______
73
0
40
0
0
ENDTAB
0
TABLE
2
LAYER
0
ENDTAB
0
ENDSEC
0
SECTION
2
ENTITIES
0
LINE
8
0
10
120
20
-159.5
11
140
21
-159.5
0
LINE
8
0
10
140
20
-159.5
11
140
21
-151.5
0
LINE
8
0
10
120
20
-159.5
11
120
21
-102.5
0
LINE
8
0
10
139
20
-102.5
11
120
21
-102.5
0
LINE
8
0
10
140
20
-151.5
11
159
21
-151.5
0
LINE
8
0
10
159
20
-151.5
11
159
21
-145.5
0
LINE
8
0
10
158
20
-94.5
11
139
21
-94.5
0
LINE
8
0
10
139
20
-94.5
11
139
21
-102.5
0
LINE
8
0
10
159
20
-145.5
11
177
21
-145.5
0
LINE
8
0
10
178
20
-94.5
11
178
21
-88.5
0
LINE
8
0
10
178
20
-88.5
11
158
21
-88.5
0
LINE
8
0
10
158
20
-88.5
11
158
21
-94.5
0
LINE
8
0
10
177
20
-151.5
11
196
21
-151.5
0
LINE
8
0
10
177
20
-145.5
11
177
21
-151.5
0
LINE
8
0
10
197
20
-99.5
11
197
21
-94.5
0
LINE
8
0
10
197
20
-94.5
11
178
21
-94.5
0
LINE
8
0
10
198.1459546
20
-156.5
11
216
21
-156.5
0
LINE
8
0
10
216
20
-156.5
11
216
21
-99.5
0
LINE
8
0
10
196
20
-151.5
11
196
21
-155.8846574
0
LINE
8
0
10
216
20
-99.5
11
197
21
-99.5
0
LINE
8
0
10
187.2815753
20
-173.1503787
11
205.6653822
21
-178.4218505
0
LINE
8
0
10
207.4745116
20
-175.2883464
11
211.7439189
21
-160.3991535
0
LINE
8
0
10
211.7439189
20
-160.3991535
11
198.1459546
21
-156.5
0
LINE
8
0
10
196
20
-155.8846574
11
192.518685
21
-154.8864064
0
LINE
8
0
10
192.518685
20
-154.8864064
11
187.2815753
21
-173.1503787
0
LINE
8
0
10
205.6577288
20
-178.4351065
11
222.9782368
21
-188.4351065
0
LINE
8
0
10
222.9782368
20
-188.4351065
11
232.4782368
21
-171.9806239
0
LINE
8
0
10
232.4782368
20
-171.9806239
11
215.1577288
21
-161.9806239
0
LINE
8
0
10
215.1577288
20
-161.9806239
11
207.4745116
21
-175.2883464
0
LINE
8
0
10
205.6653822
20
-178.4218505
11
205.6577288
21
-178.4351065
0
ENDSEC
0
EOF