0
SECTION
2
HEADER
9
$INSUNITS
70
4
0
ENDSEC
0
SECTION
2
TABLES
0
TABLE
2
LTYPE
0
LTYPE
72
65
70
64
2
CONTINUOUS
3
______
73
0
40
0
0
ENDTAB
0
TABLE
2
LAYER
0
ENDTAB
0
ENDSEC
0
SECTION
2
ENTITIES
0
LINE
8
0
10
120
20
-159.5
11
140
21
-159.5
0
LINE
8
0
10
140
20
-159.5
11
140
21
-150.5
0
LINE
8
0
10
120
20
-159.5
11
120
21
-102.5
0
LINE
8
0
10
150
20
-145.5
11
150
21
-150.5
0
LINE
8
0
10
150
20
-150.5
11
140
21
-150.5
0
LINE
8
0
10
129
20
-102.5
11
120
21
-102.5
0
LINE
8
0
10
150
20
-145.5
11
159
21
-145.5
0
LINE
8
0
10
159
20
-145.5
11
159
21
-139.5
0
LINE
8
0
10
129
20
-97.5
11
139
21
-97.5
0
LINE
8
0
10
129
20
-102.5
11
129
21
-97.5
0
LINE
8
0
10
139
20
-88.5
11
158
21
-88.5
0
LINE
8
0
10
139
20
-88.5
11
139
21
-97.5
0
LINE
8
0
10
159
20
-139.5
11
177
21
-139.5
0
LINE
8
0
10
178
20
-88.5
11
178
21
-82.5
0
LINE
8
0
10
178
20
-82.5
11
158
21
-82.5
0
LINE
8
0
10
158
20
-82.5
11
158
21
-88.5
0
LINE
8
0
10
177.335138
20
-145.5
11
196
21
-145.5
0
LINE
8
0
10
177
20
-139.5
11
177
21
-145.4039007
0
LINE
8
0
10
197
20
-93.5
11
197
21
-88.5
0
LINE
8
0
10
178
20
-88.5
11
197
21
-88.5
0
LINE
8
0
10
196
20
-150.5
11
216
21
-150.5
0
LINE
8
0
10
216
20
-150.5
11
216
21
-93.5
0
LINE
8
0
10
196
20
-145.5
11
196
21
-150.5
0
LINE
8
0
10
197
20
-93.5
11
216
21
-93.5
0
LINE
8
0
10
163.7688282
20
-161.3756126
11
182.1003486
21
-166.6320915
0
LINE
8
0
10
184.8175051
20
-160.5292581
11
188.2311718
21
-148.6243874
0
LINE
8
0
10
188.2311718
20
-148.6243874
11
177.335138
21
-145.5
0
LINE
8
0
10
177
20
-145.4039007
11
169.0059379
21
-143.1116403
0
LINE
8
0
10
169.0059379
20
-143.1116403
11
163.7688282
21
-161.3756126
0
LINE
8
0
10
182.09835
20
-166.6365805
11
199.5199089
21
-174.3931583
0
LINE
8
0
10
203.0599729
20
-168.7278716
11
208.0972554
21
-157.4139497
0
LINE
8
0
10
208.0972554
20
-157.4139497
11
189.8263462
21
-149.2792168
0
LINE
8
0
10
189.8263462
20
-149.2792168
11
184.8175051
21
-160.5292581
0
LINE
8
0
10
182.1003486
20
-166.6320915
11
182.09835
21
-166.6365805
0
LINE
8
0
10
199.517305
20
-174.3973253
11
216.478267
21
-184.9957106
0
LINE
8
0
10
216.478267
20
-184.9957106
11
226.546733
21
-168.8827967
0
LINE
8
0
10
226.546733
20
-168.8827967
11
209.585771
21
-158.2844114
0
LINE
8
0
10
209.585771
20
-158.2844114
11
203.0599729
21
-168.7278716
0
LINE
8
0
10
199.5199089
20
-174.3931583
11
199.517305
21
-174.3973253
0
ENDSEC
0
EOF