<svg width="106.547mm" height="102.496mm" viewBox="0 0 106.547 102.496" xmlns="http://www.w3.org/2000/svg"><g id="svgGroup" stroke-linecap="round" fill-rule="evenodd" font-size="9pt" stroke="#000" stroke-width="0.25mm" fill="none" style="stroke:#000;stroke-width:0.25mm;fill:none"><path d="M 0 77 L 20 77 L 20 68 L 30 68 L 30 63 L 39 63 L 39 57 L 57 57 L 57 62.904 L 49.006 60.612 L 43.769 78.876 L 62.1 84.132 L 62.098 84.137 L 79.52 91.893 L 79.517 91.897 L 96.478 102.496 L 106.547 86.383 L 89.586 75.784 L 83.06 86.228 L 88.097 74.914 L 69.826 66.779 L 64.818 78.029 L 68.231 66.124 L 57.335 63 L 76 63 L 76 68 L 96 68 L 96 11 L 77 11 L 77 6 L 58 6 L 58 0 L 38 0 L 38 6 L 19 6 L 19 15 L 9 15 L 9 20 L 0 20 L 0 77 Z" vector-effect="non-scaling-stroke"/></g></svg>